<svg width="318" height="66" viewBox="0 0 318 66" fill="none" xmlns="http://www.w3.org/2000/svg">
<path d="M156.6 0H0V65.9H156.6V0Z" fill="#191919" fill-opacity="0.9"/>
<path d="M156.6 0H0V17.8H156.6V0Z" fill="#595959"/>
<path d="M317.6 0H161V65.9H317.6V0Z" fill="#191919" fill-opacity="0.9"/>
<path d="M317.6 0H161V17.8H317.6V0Z" fill="#595959"/>
<path d="M53.2173 4.54531H49.7613V12.9453H51.3213V10.5213H53.2173C55.4253 10.5213 56.7933 9.38131 56.7933 7.53331C56.7933 5.67331 55.4253 4.54531 53.2173 4.54531ZM53.1453 9.20131H51.3213V5.86531H53.1453C54.5133 5.86531 55.2213 6.47731 55.2213 7.53331C55.2213 8.58931 54.5133 9.20131 53.1453 9.20131ZM61.0637 13.0293C63.0557 13.0293 64.4837 11.6613 64.4837 9.74131C64.4837 7.82131 63.0557 6.46531 61.0637 6.46531C59.0957 6.46531 57.6557 7.82131 57.6557 9.74131C57.6557 11.6613 59.0957 13.0293 61.0637 13.0293ZM61.0637 11.7453C59.9837 11.7453 59.1677 10.9653 59.1677 9.74131C59.1677 8.51731 59.9837 7.73731 61.0637 7.73731C62.1557 7.73731 62.9717 8.51731 62.9717 9.74131C62.9717 10.9653 62.1557 11.7453 61.0637 11.7453ZM67.8981 13.0293C69.6981 13.0293 70.8021 12.2493 70.8021 11.0493C70.8021 8.54131 66.8421 9.69331 66.8421 8.39731C66.8421 7.97731 67.2741 7.67731 68.1861 7.67731C68.7981 7.67731 69.4101 7.79731 70.0221 8.15731L70.5981 7.01731C70.0221 6.66931 69.0501 6.46531 68.1981 6.46531C66.4701 6.46531 65.3781 7.25731 65.3781 8.46931C65.3781 11.0253 69.3381 9.87331 69.3381 11.0973C69.3381 11.5413 68.9421 11.8053 67.9941 11.8053C67.1901 11.8053 66.3261 11.5413 65.7621 11.1693L65.1861 12.3093C65.7621 12.7173 66.8301 13.0293 67.8981 13.0293ZM75.5259 11.5293C75.2979 11.7093 74.9979 11.7933 74.6859 11.7933C74.1099 11.7933 73.7979 11.4573 73.7979 10.8333V7.78531H75.5139V6.58531H73.7979V5.12131H72.2979V6.58531H71.2419V7.78531H72.2979V10.8693C72.2979 12.2853 73.1019 13.0293 74.5059 13.0293C75.0459 13.0293 75.5859 12.8853 75.9459 12.5973L75.5259 11.5293ZM80.7318 6.46531C79.8558 6.46531 79.1118 6.76531 78.6078 7.37731V6.53731H77.1798V15.2733H78.6798V12.1653C79.1958 12.7533 79.9158 13.0293 80.7318 13.0293C82.6038 13.0293 83.9838 11.7333 83.9838 9.74131C83.9838 7.76131 82.6038 6.46531 80.7318 6.46531ZM80.5638 11.7453C79.4838 11.7453 78.6558 10.9653 78.6558 9.74131C78.6558 8.51731 79.4838 7.73731 80.5638 7.73731C81.6438 7.73731 82.4598 8.51731 82.4598 9.74131C82.4598 10.9653 81.6438 11.7453 80.5638 11.7453ZM87.7723 6.46531C86.7403 6.46531 85.7443 6.72931 85.0603 7.25731L85.6483 8.34931C86.1283 7.95331 86.8723 7.71331 87.5923 7.71331C88.6603 7.71331 89.1883 8.22931 89.1883 9.10531V9.20131H87.5323C85.5883 9.20131 84.8683 10.0413 84.8683 11.1093C84.8683 12.2253 85.7923 13.0293 87.2563 13.0293C88.2163 13.0293 88.9123 12.7173 89.2723 12.1653V12.9453H90.6883V9.18931C90.6883 7.34131 89.6203 6.46531 87.7723 6.46531ZM87.5683 11.9373C86.8003 11.9373 86.3443 11.5893 86.3443 11.0493C86.3443 10.5813 86.6203 10.1973 87.6403 10.1973H89.1883V10.9413C88.9363 11.6013 88.3003 11.9373 87.5683 11.9373ZM97.604 6.53731V7.38931C97.076 6.75331 96.284 6.46531 95.384 6.46531C93.548 6.46531 92.144 7.68931 92.144 9.54931C92.144 11.4093 93.548 12.6573 95.384 12.6573C96.248 12.6573 97.004 12.3813 97.532 11.8053V12.1413C97.532 13.4373 96.908 14.0853 95.492 14.0853C94.604 14.0853 93.692 13.7853 93.128 13.3173L92.456 14.4453C93.188 15.0453 94.376 15.3573 95.576 15.3573C97.82 15.3573 99.032 14.3013 99.032 11.9733V6.53731H97.604ZM95.612 11.3853C94.472 11.3853 93.656 10.6413 93.656 9.54931C93.656 8.46931 94.472 7.73731 95.612 7.73731C96.74 7.73731 97.556 8.46931 97.556 9.54931C97.556 10.6413 96.74 11.3853 95.612 11.3853ZM103.884 13.0293C105.876 13.0293 107.304 11.6613 107.304 9.74131C107.304 7.82131 105.876 6.46531 103.884 6.46531C101.916 6.46531 100.476 7.82131 100.476 9.74131C100.476 11.6613 101.916 13.0293 103.884 13.0293ZM103.884 11.7453C102.804 11.7453 101.988 10.9653 101.988 9.74131C101.988 8.51731 102.804 7.73731 103.884 7.73731C104.976 7.73731 105.792 8.51731 105.792 9.74131C105.792 10.9653 104.976 11.7453 103.884 11.7453Z" fill="black"/>
<path d="M38.2602 33.7138C40.5642 33.7138 41.6562 32.5617 41.6562 31.2177C41.6562 28.1337 36.6762 29.2977 36.6762 27.5097C36.6762 26.8737 37.2042 26.3697 38.5002 26.3697C39.2322 26.3697 40.0602 26.5857 40.8162 27.0297L41.3082 25.8177C40.5762 25.3377 39.5202 25.0737 38.5122 25.0737C36.2082 25.0737 35.1282 26.2257 35.1282 27.5817C35.1282 30.7017 40.1202 29.5137 40.1202 31.3257C40.1202 31.9497 39.5682 32.4177 38.2602 32.4177C37.2282 32.4177 36.1602 32.0337 35.4882 31.4937L34.9482 32.7057C35.6442 33.3057 36.9522 33.7138 38.2602 33.7138ZM41.7151 34.7938H43.0591L47.0191 23.4897H45.6751L41.7151 34.7938ZM49.8882 25.0737C48.1722 25.0737 46.8162 26.1297 46.8162 27.7977C46.8162 29.3697 48.0522 30.3777 49.7082 30.3777C50.6442 30.3777 51.4482 30.0897 51.9522 29.5017V29.5137C51.9522 31.4217 50.9562 32.4057 49.3722 32.4057C48.7842 32.4057 48.2322 32.2977 47.7762 31.9977L47.2002 33.1737C47.7642 33.5337 48.5682 33.7138 49.4082 33.7138C51.8442 33.7138 53.5242 32.1297 53.5242 29.2497C53.5242 26.5497 52.1802 25.0737 49.8882 25.0737ZM50.0082 29.1537C48.9882 29.1537 48.3282 28.6017 48.3282 27.7257C48.3282 26.8497 49.0002 26.2977 49.9722 26.2977C51.0882 26.2977 51.7122 26.9217 51.7122 27.7137C51.7122 28.5417 51.0162 29.1537 50.0082 29.1537ZM55.375 33.6778C55.915 33.6778 56.359 33.2577 56.359 32.6817C56.359 32.0817 55.915 31.6857 55.375 31.6857C54.835 31.6857 54.391 32.0817 54.391 32.6817C54.391 33.2577 54.835 33.6778 55.375 33.6778ZM60.2007 25.0737C58.4847 25.0737 57.1287 26.1297 57.1287 27.7977C57.1287 29.3697 58.3647 30.3777 60.0207 30.3777C60.9567 30.3777 61.7607 30.0897 62.2647 29.5017V29.5137C62.2647 31.4217 61.2687 32.4057 59.6847 32.4057C59.0967 32.4057 58.5447 32.2977 58.0887 31.9977L57.5127 33.1737C58.0767 33.5337 58.8807 33.7138 59.7207 33.7138C62.1567 33.7138 63.8367 32.1297 63.8367 29.2497C63.8367 26.5497 62.4927 25.0737 60.2007 25.0737ZM60.3207 29.1537C59.3007 29.1537 58.6407 28.6017 58.6407 27.7257C58.6407 26.8497 59.3127 26.2977 60.2847 26.2977C61.4007 26.2977 62.0247 26.9217 62.0247 27.7137C62.0247 28.5417 61.3287 29.1537 60.3207 29.1537ZM68.3961 33.7138C70.4001 33.7138 71.9121 32.1537 71.9121 29.3937C71.9121 26.6337 70.4001 25.0737 68.3961 25.0737C66.4041 25.0737 64.8921 26.6337 64.8921 29.3937C64.8921 32.1537 66.4041 33.7138 68.3961 33.7138ZM68.3961 32.3577C67.2561 32.3577 66.4641 31.4217 66.4641 29.3937C66.4641 27.3657 67.2561 26.4297 68.3961 26.4297C69.5481 26.4297 70.3401 27.3657 70.3401 29.3937C70.3401 31.4217 69.5481 32.3577 68.3961 32.3577ZM76.8828 33.5938H78.4428V25.1937H76.8828V33.5938ZM84.2068 27.1137C83.2708 27.1137 82.4908 27.4258 81.9988 28.0137V27.1857H80.5708V33.5938H82.0708V30.3537C82.0708 29.0697 82.7908 28.4217 83.8588 28.4217C84.8188 28.4217 85.3828 28.9737 85.3828 30.1137V33.5938H86.8828V29.9217C86.8828 27.9897 85.7428 27.1137 84.2068 27.1137ZM91.7842 33.6778C93.0322 33.6778 94.0282 33.1377 94.5202 32.1777L93.3682 31.5057C92.9842 32.1177 92.4082 32.3937 91.7722 32.3937C90.6682 32.3937 89.8282 31.6377 89.8282 30.3897C89.8282 29.1537 90.6682 28.3857 91.7722 28.3857C92.4082 28.3857 92.9842 28.6617 93.3682 29.2737L94.5202 28.6017C94.0282 27.6297 93.0322 27.1137 91.7842 27.1137C89.7562 27.1137 88.3162 28.4697 88.3162 30.3897C88.3162 32.3097 89.7562 33.6778 91.7842 33.6778ZM96.5313 33.6778C97.0713 33.6778 97.5153 33.2577 97.5153 32.6817C97.5153 32.0817 97.0713 31.6857 96.5313 31.6857C95.9913 31.6857 95.5473 32.0817 95.5473 32.6817C95.5473 33.2577 95.9913 33.6778 96.5313 33.6778ZM102.441 33.5938H104.001V25.1937H102.441V33.5938ZM112.009 31.9137C111.469 32.2257 110.881 32.3457 110.281 32.3457C108.505 32.3457 107.245 31.0977 107.245 29.3937C107.245 27.6537 108.505 26.4417 110.293 26.4417C111.193 26.4417 111.949 26.7417 112.609 27.4017L113.593 26.4417C112.801 25.5417 111.625 25.0737 110.221 25.0737C107.593 25.0737 105.673 26.8857 105.673 29.3937C105.673 31.9017 107.593 33.7138 110.197 33.7138C111.385 33.7138 112.609 33.3537 113.485 32.6457V29.2977H112.009V31.9137ZM121.663 25.1937L118.843 31.6737L116.047 25.1937H114.355L118.027 33.5938H119.563L123.223 25.1937H121.663Z" fill="white"/>
<path d="M38.9797 46.9841C40.2157 46.9841 41.3197 46.5641 42.0637 45.7481L41.4997 45.1841C40.8157 45.8921 39.9757 46.1921 39.0157 46.1921C36.9877 46.1921 35.4637 44.7041 35.4637 42.7121C35.4637 40.7201 36.9877 39.2321 39.0157 39.2321C39.9757 39.2321 40.8157 39.5321 41.4997 40.2281L42.0637 39.6641C41.3197 38.8481 40.2157 38.4401 38.9917 38.4401C36.4597 38.4401 34.5877 40.2521 34.5877 42.7121C34.5877 45.1721 36.4597 46.9841 38.9797 46.9841ZM46.0755 46.9721C47.9235 46.9721 49.2795 45.6281 49.2795 43.7561C49.2795 41.8841 47.9235 40.5521 46.0755 40.5521C44.2275 40.5521 42.8595 41.8841 42.8595 43.7561C42.8595 45.6281 44.2275 46.9721 46.0755 46.9721ZM46.0755 46.2161C44.7315 46.2161 43.7235 45.2321 43.7235 43.7561C43.7235 42.2801 44.7315 41.2961 46.0755 41.2961C47.4195 41.2961 48.4155 42.2801 48.4155 43.7561C48.4155 45.2321 47.4195 46.2161 46.0755 46.2161ZM52.7109 46.9721C54.3549 46.9721 55.3149 46.2641 55.3149 45.1721C55.3149 42.7481 51.2229 44.0321 51.2229 42.3281C51.2229 41.7281 51.7269 41.2841 52.8669 41.2841C53.5149 41.2841 54.1749 41.4401 54.7269 41.8241L55.0989 41.1401C54.5709 40.7801 53.6829 40.5521 52.8669 40.5521C51.2589 40.5521 50.3709 41.3201 50.3709 42.3521C50.3709 44.8481 54.4629 43.5521 54.4629 45.1961C54.4629 45.8201 53.9709 46.2281 52.7709 46.2281C51.8829 46.2281 51.0309 45.9161 50.5269 45.5201L50.1429 46.1921C50.6589 46.6361 51.6669 46.9721 52.7109 46.9721ZM59.914 45.9161C59.674 46.1321 59.326 46.2401 58.978 46.2401C58.27 46.2401 57.886 45.8321 57.886 45.0881V41.3201H59.806V40.6001H57.886V39.2201H57.034V40.6001H55.906V41.3201H57.034V45.1361C57.034 46.3001 57.694 46.9721 58.882 46.9721C59.374 46.9721 59.878 46.8281 60.214 46.5281L59.914 45.9161ZM64.1224 46.9721C65.9704 46.9721 67.3264 45.6281 67.3264 43.7561C67.3264 41.8841 65.9704 40.5521 64.1224 40.5521C62.2744 40.5521 60.9064 41.8841 60.9064 43.7561C60.9064 45.6281 62.2744 46.9721 64.1224 46.9721ZM64.1224 46.2161C62.7784 46.2161 61.7704 45.2321 61.7704 43.7561C61.7704 42.2801 62.7784 41.2961 64.1224 41.2961C65.4664 41.2961 66.4624 42.2801 66.4624 43.7561C66.4624 45.2321 65.4664 46.2161 64.1224 46.2161ZM80.3784 38.5121L76.7664 44.7401L73.1184 38.5121H72.3864V46.9121H73.2384V40.2281L76.5384 45.8441H76.9584L80.2584 40.1921V46.9121H81.1104V38.5121H80.3784ZM89.1754 43.7561C89.1754 41.8601 87.8914 40.5521 86.1154 40.5521C84.3394 40.5521 83.0314 41.8841 83.0314 43.7561C83.0314 45.6281 84.3754 46.9721 86.3434 46.9721C87.3394 46.9721 88.2154 46.6121 88.7794 45.9401L88.2994 45.3881C87.8194 45.9401 87.1354 46.2161 86.3674 46.2161C84.9874 46.2161 83.9794 45.3401 83.8834 44.0201H89.1634C89.1634 43.9241 89.1754 43.8281 89.1754 43.7561ZM86.1154 41.2841C87.3514 41.2841 88.2514 42.1481 88.3594 43.3841H83.8834C83.9914 42.1481 84.8914 41.2841 86.1154 41.2841ZM94.1256 40.5521C93.0336 40.5521 92.1816 40.9961 91.7256 41.7641V40.6001H90.9096V46.9121H91.7616V43.6001C91.7616 42.1601 92.6136 41.3201 93.9696 41.3201C95.1696 41.3201 95.8656 42.0041 95.8656 43.3361V46.9121H96.7176V43.2521C96.7176 41.4401 95.6616 40.5521 94.1256 40.5521ZM100.723 46.9721C102.367 46.9721 103.327 46.2641 103.327 45.1721C103.327 42.7481 99.2347 44.0321 99.2347 42.3281C99.2347 41.7281 99.7387 41.2841 100.879 41.2841C101.527 41.2841 102.187 41.4401 102.739 41.8241L103.111 41.1401C102.583 40.7801 101.695 40.5521 100.879 40.5521C99.2707 40.5521 98.3827 41.3201 98.3827 42.3521C98.3827 44.8481 102.475 43.5521 102.475 45.1961C102.475 45.8201 101.983 46.2281 100.783 46.2281C99.8947 46.2281 99.0427 45.9161 98.5387 45.5201L98.1547 46.1921C98.6707 46.6361 99.6787 46.9721 100.723 46.9721ZM109.738 40.6001V43.9121C109.738 45.3521 108.91 46.2041 107.59 46.2041C106.39 46.2041 105.694 45.5201 105.694 44.1761V40.6001H104.842V44.2601C104.842 46.0721 105.898 46.9721 107.506 46.9721C108.514 46.9721 109.33 46.5281 109.774 45.7601V46.9121H110.59V40.6001H109.738ZM115.184 40.5521C114.188 40.5521 113.252 40.8641 112.616 41.4041L113 42.0401C113.516 41.5841 114.284 41.2961 115.1 41.2961C116.276 41.2961 116.888 41.8841 116.888 42.9641V43.3481H114.884C113.072 43.3481 112.448 44.1641 112.448 45.1361C112.448 46.2281 113.324 46.9721 114.752 46.9721C115.796 46.9721 116.54 46.5761 116.924 45.9281V46.9121H117.74V43.0001C117.74 41.3681 116.816 40.5521 115.184 40.5521ZM114.884 46.3001C113.876 46.3001 113.288 45.8441 113.288 45.1121C113.288 44.4641 113.684 43.9841 114.908 43.9841H116.888V45.0161C116.552 45.8441 115.844 46.3001 114.884 46.3001ZM120.054 46.9121H120.906V38.0081H120.054V46.9121Z" fill="white"/>
<path d="M19.4158 60.8234C20.3058 60.8234 21.0558 60.4634 21.4758 59.7834L20.9458 59.4234C20.5858 59.9534 20.0258 60.1934 19.4158 60.1934C18.2658 60.1934 17.4258 59.3834 17.4258 58.1434C17.4258 56.9134 18.2658 56.0934 19.4158 56.0934C20.0258 56.0934 20.5858 56.3434 20.9458 56.8734L21.4758 56.5134C21.0558 55.8234 20.3058 55.4734 19.4158 55.4734C17.8458 55.4734 16.7058 56.5734 16.7058 58.1434C16.7058 59.7134 17.8458 60.8234 19.4158 60.8234ZM24.9327 60.8234C26.4727 60.8234 27.6027 59.7034 27.6027 58.1434C27.6027 56.5834 26.4727 55.4734 24.9327 55.4734C23.3927 55.4734 22.2527 56.5834 22.2527 58.1434C22.2527 59.7034 23.3927 60.8234 24.9327 60.8234ZM24.9327 60.1934C23.8127 60.1934 22.9727 59.3734 22.9727 58.1434C22.9727 56.9134 23.8127 56.0934 24.9327 56.0934C26.0527 56.0934 26.8827 56.9134 26.8827 58.1434C26.8827 59.3734 26.0527 60.1934 24.9327 60.1934ZM31.7323 55.4734C30.8223 55.4734 30.1123 55.8434 29.7323 56.4834V55.5134H29.0523V60.7734H29.7623V58.0134C29.7623 56.8134 30.4723 56.1134 31.6023 56.1134C32.6023 56.1134 33.1823 56.6834 33.1823 57.7934V60.7734H33.8923V57.7234C33.8923 56.2134 33.0123 55.4734 31.7323 55.4734ZM40.617 60.8234C41.507 60.8234 42.257 60.4634 42.677 59.7834L42.147 59.4234C41.787 59.9534 41.227 60.1934 40.617 60.1934C39.467 60.1934 38.627 59.3834 38.627 58.1434C38.627 56.9134 39.467 56.0934 40.617 56.0934C41.227 56.0934 41.787 56.3434 42.147 56.8734L42.677 56.5134C42.257 55.8234 41.507 55.4734 40.617 55.4734C39.047 55.4734 37.907 56.5734 37.907 58.1434C37.907 59.7134 39.047 60.8234 40.617 60.8234ZM45.9118 55.4734C45.0818 55.4734 44.3018 55.7334 43.7718 56.1834L44.0918 56.7134C44.5218 56.3334 45.1618 56.0934 45.8418 56.0934C46.8218 56.0934 47.3318 56.5834 47.3318 57.4834V57.8034H45.6618C44.1518 57.8034 43.6318 58.4834 43.6318 59.2934C43.6318 60.2034 44.3618 60.8234 45.5518 60.8234C46.4218 60.8234 47.0418 60.4934 47.3618 59.9534V60.7734H48.0418V57.5134C48.0418 56.1534 47.2718 55.4734 45.9118 55.4734ZM45.6618 60.2634C44.8218 60.2634 44.3318 59.8834 44.3318 59.2734C44.3318 58.7334 44.6618 58.3334 45.6818 58.3334H47.3318V59.1934C47.0518 59.8834 46.4618 60.2634 45.6618 60.2634ZM50.6502 56.5434V55.5134H49.9702V60.7734H50.6802V58.0934C50.6802 56.8534 51.3502 56.1534 52.4502 56.1534C52.5002 56.1534 52.5602 56.1634 52.6202 56.1634V55.4734C51.6502 55.4734 50.9802 55.8434 50.6502 56.5434ZM58.0469 55.5134V56.5234C57.6069 55.8334 56.8469 55.4734 55.9669 55.4734C54.4669 55.4734 53.3269 56.5034 53.3269 58.0134C53.3269 59.5234 54.4669 60.5734 55.9669 60.5734C56.8269 60.5734 57.5769 60.2234 58.0169 59.5534V60.2234C58.0169 61.5234 57.4069 62.1334 56.0769 62.1334C55.2669 62.1334 54.5069 61.8634 54.0069 61.4134L53.6469 61.9534C54.1969 62.4734 55.1369 62.7634 56.0969 62.7634C57.8369 62.7634 58.7269 61.9434 58.7269 60.1334V55.5134H58.0469ZM56.0369 59.9434C54.8769 59.9434 54.0469 59.1534 54.0469 58.0134C54.0469 56.8734 54.8769 56.0934 56.0369 56.0934C57.1969 56.0934 58.0369 56.8734 58.0369 58.0134C58.0369 59.1534 57.1969 59.9434 56.0369 59.9434ZM62.8624 60.8234C64.4024 60.8234 65.5324 59.7034 65.5324 58.1434C65.5324 56.5834 64.4024 55.4734 62.8624 55.4734C61.3224 55.4734 60.1824 56.5834 60.1824 58.1434C60.1824 59.7034 61.3224 60.8234 62.8624 60.8234ZM62.8624 60.1934C61.7424 60.1934 60.9024 59.3734 60.9024 58.1434C60.9024 56.9134 61.7424 56.0934 62.8624 56.0934C63.9824 56.0934 64.8124 56.9134 64.8124 58.1434C64.8124 59.3734 63.9824 60.1934 62.8624 60.1934ZM71.4391 55.4734C70.6091 55.4734 69.8291 55.7334 69.2991 56.1834L69.6191 56.7134C70.0491 56.3334 70.6891 56.0934 71.3691 56.0934C72.3491 56.0934 72.8591 56.5834 72.8591 57.4834V57.8034H71.1891C69.6791 57.8034 69.1591 58.4834 69.1591 59.2934C69.1591 60.2034 69.8891 60.8234 71.0791 60.8234C71.9491 60.8234 72.5691 60.4934 72.8891 59.9534V60.7734H73.5691V57.5134C73.5691 56.1534 72.7991 55.4734 71.4391 55.4734ZM71.1891 60.2634C70.3491 60.2634 69.8591 59.8834 69.8591 59.2734C69.8591 58.7334 70.1891 58.3334 71.2091 58.3334H72.8591V59.1934C72.5791 59.8834 71.9891 60.2634 71.1891 60.2634ZM75.4976 60.7734H76.2076V53.3534H75.4976V60.7734ZM81.4803 56.5434V55.5134H80.8003V60.7734H81.5103V58.0934C81.5103 56.8534 82.1803 56.1534 83.2803 56.1534C83.3303 56.1534 83.3903 56.1634 83.4503 56.1634V55.4734C82.4803 55.4734 81.8103 55.8434 81.4803 56.5434ZM89.277 58.1434C89.277 56.5634 88.207 55.4734 86.727 55.4734C85.247 55.4734 84.157 56.5834 84.157 58.1434C84.157 59.7034 85.277 60.8234 86.917 60.8234C87.747 60.8234 88.477 60.5234 88.947 59.9634L88.547 59.5034C88.147 59.9634 87.577 60.1934 86.937 60.1934C85.787 60.1934 84.947 59.4634 84.867 58.3634H89.267C89.267 58.2834 89.277 58.2034 89.277 58.1434ZM86.727 56.0834C87.757 56.0834 88.507 56.8034 88.597 57.8334H84.867C84.957 56.8034 85.707 56.0834 86.727 56.0834ZM92.9022 60.8234C93.7922 60.8234 94.5422 60.4634 94.9622 59.7834L94.4322 59.4234C94.0722 59.9534 93.5122 60.1934 92.9022 60.1934C91.7522 60.1934 90.9122 59.3834 90.9122 58.1434C90.9122 56.9134 91.7522 56.0934 92.9022 56.0934C93.5122 56.0934 94.0722 56.3434 94.4322 56.8734L94.9622 56.5134C94.5422 55.8234 93.7922 55.4734 92.9022 55.4734C91.3322 55.4734 90.1922 56.5734 90.1922 58.1434C90.1922 59.7134 91.3322 60.8234 92.9022 60.8234ZM96.7169 54.3634C97.0169 54.3634 97.2369 54.1334 97.2369 53.8434C97.2369 53.5734 97.0069 53.3534 96.7169 53.3534C96.4269 53.3534 96.1969 53.5834 96.1969 53.8534C96.1969 54.1334 96.4269 54.3634 96.7169 54.3634ZM96.3569 60.7734H97.0669V55.5134H96.3569V60.7734ZM101.752 55.4734C100.912 55.4734 100.192 55.8334 99.7525 56.5134V53.3534H99.0425V60.7734H99.7225V59.7334C100.152 60.4434 100.882 60.8234 101.752 60.8234C103.252 60.8234 104.372 59.7334 104.372 58.1434C104.372 56.5534 103.252 55.4734 101.752 55.4734ZM101.702 60.1934C100.582 60.1934 99.7425 59.3734 99.7425 58.1434C99.7425 56.9134 100.582 56.0934 101.702 56.0934C102.812 56.0934 103.662 56.9134 103.662 58.1434C103.662 59.3734 102.812 60.1934 101.702 60.1934ZM107.97 60.8234C109.51 60.8234 110.64 59.7034 110.64 58.1434C110.64 56.5834 109.51 55.4734 107.97 55.4734C106.43 55.4734 105.29 56.5834 105.29 58.1434C105.29 59.7034 106.43 60.8234 107.97 60.8234ZM107.97 60.1934C106.85 60.1934 106.01 59.3734 106.01 58.1434C106.01 56.9134 106.85 56.0934 107.97 56.0934C109.09 56.0934 109.92 56.9134 109.92 58.1434C109.92 59.3734 109.09 60.1934 107.97 60.1934ZM115.597 60.1334V57.5334H119.217V56.9034H115.597V54.4134H119.657V53.7734H114.857V60.7734H119.807V60.1334H115.597ZM124.076 55.4734C123.166 55.4734 122.456 55.8434 122.076 56.4834V55.5134H121.396V60.7734H122.106V58.0134C122.106 56.8134 122.816 56.1134 123.946 56.1134C124.946 56.1134 125.526 56.6834 125.526 57.7934V60.7734H126.236V57.7234C126.236 56.2134 125.356 55.4734 124.076 55.4734ZM130.684 59.9434C130.484 60.1234 130.194 60.2134 129.904 60.2134C129.314 60.2134 128.994 59.8734 128.994 59.2534V56.1134H130.594V55.5134H128.994V54.3634H128.284V55.5134H127.344V56.1134H128.284V59.2934C128.284 60.2634 128.834 60.8234 129.824 60.8234C130.234 60.8234 130.654 60.7034 130.934 60.4534L130.684 59.9434ZM136.631 58.1434C136.631 56.5634 135.561 55.4734 134.081 55.4734C132.601 55.4734 131.511 56.5834 131.511 58.1434C131.511 59.7034 132.631 60.8234 134.271 60.8234C135.101 60.8234 135.831 60.5234 136.301 59.9634L135.901 59.5034C135.501 59.9634 134.931 60.1934 134.291 60.1934C133.141 60.1934 132.301 59.4634 132.221 58.3634H136.621C136.621 58.2834 136.631 58.2034 136.631 58.1434ZM134.081 56.0834C135.111 56.0834 135.861 56.8034 135.951 57.8334H132.221C132.311 56.8034 133.061 56.0834 134.081 56.0834ZM138.076 60.7734H138.786V53.3534H138.076V60.7734Z" fill="#69FFD1"/>
<path d="M217.469 4.54531H214.013V12.9453H215.573V10.5213H217.469C219.677 10.5213 221.045 9.38131 221.045 7.53331C221.045 5.67331 219.677 4.54531 217.469 4.54531ZM217.397 9.20131H215.573V5.86531H217.397C218.765 5.86531 219.473 6.47731 219.473 7.53331C219.473 8.58931 218.765 9.20131 217.397 9.20131ZM223.829 7.47331V6.53731H222.401V12.9453H223.901V9.83731C223.901 8.52931 224.621 7.85731 225.761 7.85731C225.869 7.85731 225.977 7.86931 226.109 7.89331V6.46531C225.041 6.46531 224.261 6.80131 223.829 7.47331ZM233.347 9.77731C233.347 7.77331 231.979 6.46531 230.107 6.46531C228.199 6.46531 226.795 7.83331 226.795 9.74131C226.795 11.6493 228.187 13.0293 230.335 13.0293C231.439 13.0293 232.339 12.6693 232.915 11.9853L232.111 11.0613C231.655 11.5293 231.091 11.7573 230.371 11.7573C229.255 11.7573 228.475 11.1573 228.295 10.2213H233.323C233.335 10.0773 233.347 9.89731 233.347 9.77731ZM230.107 7.66531C231.091 7.66531 231.799 8.30131 231.919 9.22531H228.283C228.427 8.28931 229.135 7.66531 230.107 7.66531ZM238.339 6.46531C237.463 6.46531 236.719 6.76531 236.215 7.37731V6.53731H234.787V15.2733H236.287V12.1653C236.803 12.7533 237.523 13.0293 238.339 13.0293C240.211 13.0293 241.591 11.7333 241.591 9.74131C241.591 7.76131 240.211 6.46531 238.339 6.46531ZM238.171 11.7453C237.091 11.7453 236.263 10.9653 236.263 9.74131C236.263 8.51731 237.091 7.73731 238.171 7.73731C239.251 7.73731 240.067 8.51731 240.067 9.74131C240.067 10.9653 239.251 11.7453 238.171 11.7453ZM245.38 6.46531C244.348 6.46531 243.352 6.72931 242.668 7.25731L243.256 8.34931C243.736 7.95331 244.48 7.71331 245.2 7.71331C246.268 7.71331 246.796 8.22931 246.796 9.10531V9.20131H245.14C243.196 9.20131 242.476 10.0413 242.476 11.1093C242.476 12.2253 243.4 13.0293 244.864 13.0293C245.824 13.0293 246.52 12.7173 246.88 12.1653V12.9453H248.296V9.18931C248.296 7.34131 247.228 6.46531 245.38 6.46531ZM245.176 11.9373C244.408 11.9373 243.952 11.5893 243.952 11.0493C243.952 10.5813 244.228 10.1973 245.248 10.1973H246.796V10.9413C246.544 11.6013 245.908 11.9373 245.176 11.9373ZM255.212 6.53731V7.38931C254.684 6.75331 253.892 6.46531 252.992 6.46531C251.156 6.46531 249.752 7.68931 249.752 9.54931C249.752 11.4093 251.156 12.6573 252.992 12.6573C253.856 12.6573 254.612 12.3813 255.14 11.8053V12.1413C255.14 13.4373 254.516 14.0853 253.1 14.0853C252.212 14.0853 251.3 13.7853 250.736 13.3173L250.064 14.4453C250.796 15.0453 251.984 15.3573 253.184 15.3573C255.428 15.3573 256.64 14.3013 256.64 11.9733V6.53731H255.212ZM253.22 11.3853C252.08 11.3853 251.264 10.6413 251.264 9.54931C251.264 8.46931 252.08 7.73731 253.22 7.73731C254.348 7.73731 255.164 8.46931 255.164 9.54931C255.164 10.6413 254.348 11.3853 253.22 11.3853ZM261.492 13.0293C263.484 13.0293 264.912 11.6613 264.912 9.74131C264.912 7.82131 263.484 6.46531 261.492 6.46531C259.524 6.46531 258.084 7.82131 258.084 9.74131C258.084 11.6613 259.524 13.0293 261.492 13.0293ZM261.492 11.7453C260.412 11.7453 259.596 10.9653 259.596 9.74131C259.596 8.51731 260.412 7.73731 261.492 7.73731C262.584 7.73731 263.4 8.51731 263.4 9.74131C263.4 10.9653 262.584 11.7453 261.492 11.7453Z" fill="black"/>
<path d="M201.006 33.7138C200.35 33.7138 199.722 33.6218 199.122 33.4377C198.522 33.2457 198.046 33.0017 197.694 32.7057L198.234 31.4937C198.57 31.7577 198.986 31.9777 199.482 32.1537C199.978 32.3297 200.486 32.4177 201.006 32.4177C201.446 32.4177 201.802 32.3697 202.074 32.2737C202.346 32.1777 202.546 32.0497 202.674 31.8897C202.802 31.7217 202.866 31.5337 202.866 31.3257C202.866 31.0697 202.774 30.8657 202.59 30.7137C202.406 30.5537 202.166 30.4297 201.87 30.3417C201.582 30.2457 201.258 30.1577 200.898 30.0777C200.546 29.9977 200.19 29.9057 199.83 29.8017C199.478 29.6897 199.154 29.5497 198.858 29.3817C198.57 29.2057 198.334 28.9737 198.15 28.6857C197.966 28.3977 197.874 28.0297 197.874 27.5817C197.874 27.1257 197.994 26.7097 198.234 26.3337C198.482 25.9497 198.854 25.6457 199.35 25.4217C199.854 25.1897 200.49 25.0737 201.258 25.0737C201.762 25.0737 202.262 25.1377 202.758 25.2657C203.254 25.3937 203.686 25.5777 204.054 25.8177L203.562 27.0297C203.186 26.8057 202.798 26.6417 202.398 26.5378C201.998 26.4257 201.614 26.3697 201.246 26.3697C200.814 26.3697 200.462 26.4217 200.19 26.5257C199.926 26.6297 199.73 26.7657 199.602 26.9337C199.482 27.1017 199.422 27.2937 199.422 27.5097C199.422 27.7657 199.51 27.9737 199.686 28.1337C199.87 28.2857 200.106 28.4057 200.394 28.4937C200.69 28.5817 201.018 28.6697 201.378 28.7577C201.738 28.8377 202.094 28.9297 202.446 29.0337C202.806 29.1377 203.13 29.2737 203.418 29.4417C203.714 29.6097 203.95 29.8377 204.126 30.1257C204.31 30.4137 204.402 30.7777 204.402 31.2177C204.402 31.6657 204.278 32.0817 204.03 32.4657C203.79 32.8417 203.418 33.1457 202.914 33.3777C202.41 33.6018 201.774 33.7138 201.006 33.7138ZM204.461 34.7938L208.421 23.4897H209.765L205.805 34.7938H204.461ZM211.51 33.5938V25.7937L212.194 26.5017H209.734V25.1937H213.07V33.5938H211.51ZM215.672 33.6778C215.4 33.6778 215.168 33.5857 214.976 33.4017C214.784 33.2097 214.688 32.9697 214.688 32.6817C214.688 32.3777 214.784 32.1377 214.976 31.9617C215.168 31.7777 215.4 31.6857 215.672 31.6857C215.944 31.6857 216.176 31.7777 216.368 31.9617C216.56 32.1377 216.656 32.3777 216.656 32.6817C216.656 32.9697 216.56 33.2097 216.368 33.4017C216.176 33.5857 215.944 33.6778 215.672 33.6778ZM220.45 33.7138C219.858 33.7138 219.278 33.6298 218.71 33.4617C218.15 33.2857 217.678 33.0457 217.294 32.7417L217.954 31.5297C218.258 31.7777 218.626 31.9777 219.058 32.1297C219.498 32.2817 219.954 32.3577 220.426 32.3577C220.978 32.3577 221.41 32.2417 221.722 32.0098C222.042 31.7777 222.202 31.4657 222.202 31.0737C222.202 30.8097 222.134 30.5777 221.998 30.3777C221.87 30.1777 221.638 30.0257 221.302 29.9217C220.974 29.8177 220.522 29.7657 219.946 29.7657H217.918L218.35 25.1937H223.282V26.5017H218.926L219.742 25.7577L219.418 29.1777L218.602 28.4457H220.294C221.126 28.4457 221.794 28.5577 222.298 28.7817C222.81 28.9977 223.182 29.3017 223.414 29.6937C223.654 30.0777 223.774 30.5177 223.774 31.0137C223.774 31.5017 223.654 31.9497 223.414 32.3577C223.174 32.7657 222.806 33.0937 222.31 33.3417C221.822 33.5897 221.202 33.7138 220.45 33.7138ZM228.178 33.7138C227.514 33.7138 226.914 33.5457 226.378 33.2097C225.85 32.8737 225.434 32.3857 225.13 31.7457C224.826 31.0977 224.674 30.3137 224.674 29.3937C224.674 28.4737 224.826 27.6937 225.13 27.0537C225.434 26.4057 225.85 25.9137 226.378 25.5777C226.914 25.2417 227.514 25.0737 228.178 25.0737C228.85 25.0737 229.45 25.2417 229.978 25.5777C230.506 25.9137 230.922 26.4057 231.226 27.0537C231.538 27.6937 231.694 28.4737 231.694 29.3937C231.694 30.3137 231.538 31.0977 231.226 31.7457C230.922 32.3857 230.506 32.8737 229.978 33.2097C229.45 33.5457 228.85 33.7138 228.178 33.7138ZM228.178 32.3577C228.57 32.3577 228.91 32.2537 229.198 32.0457C229.486 31.8297 229.71 31.5017 229.87 31.0617C230.038 30.6217 230.122 30.0657 230.122 29.3937C230.122 28.7137 230.038 28.1577 229.87 27.7257C229.71 27.2857 229.486 26.9617 229.198 26.7537C228.91 26.5377 228.57 26.4297 228.178 26.4297C227.802 26.4297 227.466 26.5377 227.17 26.7537C226.882 26.9617 226.654 27.2857 226.486 27.7257C226.326 28.1577 226.246 28.7137 226.246 29.3937C226.246 30.0657 226.326 30.6217 226.486 31.0617C226.654 31.5017 226.882 31.8297 227.17 32.0457C227.466 32.2537 227.802 32.3577 228.178 32.3577ZM236.664 33.5938V25.1937H238.224V33.5938H236.664ZM243.988 27.1137C244.5 27.1137 244.956 27.2137 245.356 27.4137C245.764 27.6137 246.084 27.9217 246.316 28.3377C246.548 28.7457 246.664 29.2737 246.664 29.9217V33.5938H245.164V30.1137C245.164 29.5457 245.028 29.1217 244.756 28.8417C244.492 28.5617 244.12 28.4217 243.64 28.4217C243.288 28.4217 242.976 28.4937 242.704 28.6377C242.432 28.7817 242.22 28.9977 242.068 29.2857C241.924 29.5657 241.852 29.9217 241.852 30.3537V33.5938H240.352V27.1857H241.78V28.9137L241.528 28.3857C241.752 27.9777 242.076 27.6657 242.5 27.4497C242.932 27.2257 243.428 27.1137 243.988 27.1137ZM251.519 33.6778C250.847 33.6778 250.247 33.5377 249.719 33.2577C249.199 32.9697 248.791 32.5777 248.495 32.0817C248.199 31.5857 248.051 31.0217 248.051 30.3897C248.051 29.7497 248.199 29.1857 248.495 28.6977C248.791 28.2017 249.199 27.8137 249.719 27.5338C250.247 27.2537 250.847 27.1137 251.519 27.1137C252.143 27.1137 252.691 27.2417 253.163 27.4977C253.643 27.7457 254.007 28.1137 254.255 28.6017L253.103 29.2737C252.911 28.9697 252.675 28.7457 252.395 28.6017C252.123 28.4577 251.827 28.3857 251.507 28.3857C251.139 28.3857 250.807 28.4657 250.511 28.6257C250.215 28.7857 249.983 29.0177 249.815 29.3217C249.647 29.6177 249.563 29.9737 249.563 30.3897C249.563 30.8057 249.647 31.1657 249.815 31.4697C249.983 31.7657 250.215 31.9937 250.511 32.1537C250.807 32.3137 251.139 32.3937 251.507 32.3937C251.827 32.3937 252.123 32.3217 252.395 32.1777C252.675 32.0337 252.911 31.8097 253.103 31.5057L254.255 32.1777C254.007 32.6577 253.643 33.0297 253.163 33.2937C252.691 33.5498 252.143 33.6778 251.519 33.6778ZM256.266 33.6778C255.994 33.6778 255.762 33.5857 255.57 33.4017C255.378 33.2097 255.282 32.9697 255.282 32.6817C255.282 32.3777 255.378 32.1377 255.57 31.9617C255.762 31.7777 255.994 31.6857 256.266 31.6857C256.538 31.6857 256.77 31.7777 256.962 31.9617C257.154 32.1377 257.25 32.3777 257.25 32.6817C257.25 32.9697 257.154 33.2097 256.962 33.4017C256.77 33.5857 256.538 33.6778 256.266 33.6778ZM262.176 33.5938V25.1937H263.736V33.5938H262.176ZM269.932 33.7138C269.276 33.7138 268.672 33.6098 268.12 33.4017C267.576 33.1857 267.1 32.8857 266.692 32.5017C266.284 32.1097 265.968 31.6497 265.744 31.1217C265.52 30.5937 265.408 30.0177 265.408 29.3937C265.408 28.7697 265.52 28.1937 265.744 27.6657C265.968 27.1377 266.284 26.6817 266.692 26.2977C267.108 25.9057 267.592 25.6057 268.144 25.3977C268.696 25.1817 269.3 25.0737 269.956 25.0737C270.668 25.0737 271.308 25.1897 271.876 25.4217C272.452 25.6537 272.936 25.9937 273.328 26.4417L272.344 27.4017C272.016 27.0737 271.66 26.8337 271.276 26.6817C270.9 26.5217 270.484 26.4417 270.028 26.4417C269.588 26.4417 269.18 26.5137 268.804 26.6577C268.428 26.8017 268.104 27.0057 267.832 27.2697C267.56 27.5337 267.348 27.8457 267.196 28.2057C267.052 28.5657 266.98 28.9617 266.98 29.3937C266.98 29.8177 267.052 30.2097 267.196 30.5697C267.348 30.9297 267.56 31.2457 267.832 31.5177C268.104 31.7817 268.424 31.9857 268.792 32.1297C269.16 32.2737 269.568 32.3457 270.016 32.3457C270.432 32.3457 270.832 32.2817 271.216 32.1537C271.608 32.0177 271.98 31.7937 272.332 31.4817L273.22 32.6457C272.78 32.9977 272.268 33.2657 271.684 33.4497C271.108 33.6258 270.524 33.7138 269.932 33.7138ZM271.744 32.4417V29.2977H273.22V32.6457L271.744 32.4417ZM277.761 33.5938L274.089 25.1937H275.781L279.057 32.7897H278.085L281.397 25.1937H282.957L279.297 33.5938H277.761Z" fill="white"/>
<path d="M207.63 46.9841C208.866 46.9841 209.97 46.5641 210.714 45.7481L210.15 45.1841C209.466 45.8921 208.626 46.1921 207.666 46.1921C205.638 46.1921 204.114 44.7041 204.114 42.7121C204.114 40.7201 205.638 39.2321 207.666 39.2321C208.626 39.2321 209.466 39.5321 210.15 40.2281L210.714 39.6641C209.97 38.8481 208.866 38.4401 207.642 38.4401C205.11 38.4401 203.238 40.2521 203.238 42.7121C203.238 45.1721 205.11 46.9841 207.63 46.9841ZM214.725 46.9721C216.573 46.9721 217.929 45.6281 217.929 43.7561C217.929 41.8841 216.573 40.5521 214.725 40.5521C212.877 40.5521 211.509 41.8841 211.509 43.7561C211.509 45.6281 212.877 46.9721 214.725 46.9721ZM214.725 46.2161C213.381 46.2161 212.373 45.2321 212.373 43.7561C212.373 42.2801 213.381 41.2961 214.725 41.2961C216.069 41.2961 217.065 42.2801 217.065 43.7561C217.065 45.2321 216.069 46.2161 214.725 46.2161ZM221.361 46.9721C223.005 46.9721 223.965 46.2641 223.965 45.1721C223.965 42.7481 219.873 44.0321 219.873 42.3281C219.873 41.7281 220.377 41.2841 221.517 41.2841C222.165 41.2841 222.825 41.4401 223.377 41.8241L223.749 41.1401C223.221 40.7801 222.333 40.5521 221.517 40.5521C219.909 40.5521 219.021 41.3201 219.021 42.3521C219.021 44.8481 223.113 43.5521 223.113 45.1961C223.113 45.8201 222.621 46.2281 221.421 46.2281C220.533 46.2281 219.681 45.9161 219.177 45.5201L218.793 46.1921C219.309 46.6361 220.317 46.9721 221.361 46.9721ZM228.564 45.9161C228.324 46.1321 227.976 46.2401 227.628 46.2401C226.92 46.2401 226.536 45.8321 226.536 45.0881V41.3201H228.456V40.6001H226.536V39.2201H225.684V40.6001H224.556V41.3201H225.684V45.1361C225.684 46.3001 226.344 46.9721 227.532 46.9721C228.024 46.9721 228.528 46.8281 228.864 46.5281L228.564 45.9161ZM232.772 46.9721C234.62 46.9721 235.976 45.6281 235.976 43.7561C235.976 41.8841 234.62 40.5521 232.772 40.5521C230.924 40.5521 229.556 41.8841 229.556 43.7561C229.556 45.6281 230.924 46.9721 232.772 46.9721ZM232.772 46.2161C231.428 46.2161 230.42 45.2321 230.42 43.7561C230.42 42.2801 231.428 41.2961 232.772 41.2961C234.116 41.2961 235.112 42.2801 235.112 43.7561C235.112 45.2321 234.116 46.2161 232.772 46.2161ZM241.036 46.9121H244.456C247.144 46.9121 248.956 45.1841 248.956 42.7121C248.956 40.2401 247.144 38.5121 244.456 38.5121H241.036V46.9121ZM241.924 46.1441V39.2801H244.408C246.64 39.2801 248.08 40.6961 248.08 42.7121C248.08 44.7281 246.64 46.1441 244.408 46.1441H241.924ZM251.202 39.2201C251.562 39.2201 251.826 38.9441 251.826 38.5961C251.826 38.2721 251.55 38.0081 251.202 38.0081C250.854 38.0081 250.578 38.2841 250.578 38.6081C250.578 38.9441 250.854 39.2201 251.202 39.2201ZM250.77 46.9121H251.622V40.6001H250.77V46.9121ZM256.201 40.5521C255.205 40.5521 254.269 40.8641 253.633 41.4041L254.017 42.0401C254.533 41.5841 255.301 41.2961 256.117 41.2961C257.293 41.2961 257.905 41.8841 257.905 42.9641V43.3481H255.901C254.089 43.3481 253.465 44.1641 253.465 45.1361C253.465 46.2281 254.341 46.9721 255.769 46.9721C256.813 46.9721 257.557 46.5761 257.941 45.9281V46.9121H258.757V43.0001C258.757 41.3681 257.833 40.5521 256.201 40.5521ZM255.901 46.3001C254.893 46.3001 254.305 45.8441 254.305 45.1121C254.305 44.4641 254.701 43.9841 255.925 43.9841H257.905V45.0161C257.569 45.8441 256.861 46.3001 255.901 46.3001ZM261.887 41.8361V40.6001H261.071V46.9121H261.923V43.6961C261.923 42.2081 262.727 41.3681 264.047 41.3681C264.107 41.3681 264.179 41.3801 264.251 41.3801V40.5521C263.087 40.5521 262.283 40.9961 261.887 41.8361ZM266.226 39.2201C266.586 39.2201 266.85 38.9441 266.85 38.5961C266.85 38.2721 266.574 38.0081 266.226 38.0081C265.878 38.0081 265.602 38.2841 265.602 38.6081C265.602 38.9441 265.878 39.2201 266.226 39.2201ZM265.794 46.9121H266.646V40.6001H265.794V46.9121ZM271.596 46.9721C273.444 46.9721 274.8 45.6281 274.8 43.7561C274.8 41.8841 273.444 40.5521 271.596 40.5521C269.748 40.5521 268.38 41.8841 268.38 43.7561C268.38 45.6281 269.748 46.9721 271.596 46.9721ZM271.596 46.2161C270.252 46.2161 269.244 45.2321 269.244 43.7561C269.244 42.2801 270.252 41.2961 271.596 41.2961C272.94 41.2961 273.936 42.2801 273.936 43.7561C273.936 45.2321 272.94 46.2161 271.596 46.2161Z" fill="white"/>
</svg>
