<svg width="347" height="51" viewBox="0 0 347 51" fill="none" xmlns="http://www.w3.org/2000/svg">
<path d="M4.16943 18V5.62207H0.507324V0.373047H14.5698C15.9777 0.373047 17.2188 0.560221 18.293 0.93457C19.3672 1.30892 20.2746 1.81348 21.0151 2.44824C21.7557 3.08301 22.3701 3.94157 22.8584 5.02393C23.3548 6.10628 23.603 7.51416 23.603 9.24756C23.5135 10.8507 23.245 12.2139 22.7974 13.3369C22.3498 14.46 21.7557 15.347 21.0151 15.998C20.2746 16.6491 19.3672 17.1536 18.293 17.5117C17.2269 17.8698 15.8882 18.0326 14.2769 18H4.16943ZM10.0532 4.74316V13.6055H13.4102C14.167 13.6055 14.7773 13.4468 15.2412 13.1294C15.7051 12.8039 16.0835 12.3929 16.3765 11.8965C16.6694 11.3919 16.8566 10.4886 16.938 9.18652C16.9136 7.99837 16.7467 7.12354 16.4375 6.56201C16.1364 5.99235 15.7458 5.54883 15.2656 5.23145C14.7855 4.90592 14.1589 4.74316 13.3857 4.74316H10.0532ZM24.2134 0.373047H29.9507V18H24.2134V0.373047ZM45.0386 5.62207H40.7417C38.6502 5.55697 38.341 6.13477 39.814 7.35547C42.4507 9.66667 43.7446 11.9128 43.6958 14.0938C43.647 16.2747 42.353 17.5768 39.814 18H30.439V12.751H34.1499C36.453 12.8161 36.7459 12.1732 35.0288 10.8223C32.1968 8.2181 30.9924 5.82552 31.4155 3.64453C31.8387 1.46354 33.1733 0.373047 35.4194 0.373047H45.0386V5.62207ZM45.0386 18V0.373047H60.1509V5.62207H50.7759V7.64844H56.8306V10.7246H50.7759V18H45.0386ZM61.2495 18V0.373047H72.7241C74.1401 0.503255 75.3039 0.877604 76.2153 1.49609C77.1268 2.11458 77.7941 2.94466 78.2173 3.98633C78.5428 5.54883 78.5591 6.75326 78.2661 7.59961C77.9731 8.44596 77.4604 9.15397 76.728 9.72363C75.9956 10.2933 74.9458 10.7409 73.5786 11.0664L74.897 12.751H80.1704V18H73.2124L67.6216 12.1772V18H61.2495ZM67.6216 4.76758V8.01465H72.0649C72.3009 8.01465 72.5573 7.9292 72.834 7.7583C73.1107 7.57926 73.2572 7.13574 73.2734 6.42773C73.2327 5.75228 73.0659 5.30876 72.7729 5.09717C72.4881 4.87744 72.248 4.76758 72.0527 4.76758H67.6216ZM85.2974 0.373047V10.7979C85.2485 11.986 85.4764 12.812 85.981 13.2759C86.4855 13.7397 87.2749 13.988 88.3491 14.0205C89.2118 14.0042 89.932 13.752 90.5098 13.2637C91.0876 12.7754 91.3602 11.9535 91.3276 10.7979V0.373047H97.0649V10.7124C97.0405 12.1772 96.7964 13.3491 96.3325 14.228C95.8768 15.0988 95.2949 15.8271 94.5869 16.4131C93.887 16.999 93.0041 17.4548 91.938 17.7803C90.88 18.1058 89.7 18.2848 88.3979 18.3174C87.3156 18.293 86.2129 18.1465 85.0898 17.8779C83.9749 17.6012 82.9984 17.1699 82.1602 16.584C81.3301 15.998 80.6872 15.2453 80.2314 14.3257C79.7839 13.4061 79.5601 12.2057 79.5601 10.7246V0.373047H85.2974ZM113.984 0.373047V5.62207H108.393V18H102.656V5.62207H97.0649V0.373047H113.984ZM112.885 18L118.684 0.373047H127.436L133.332 18H126.667L125.556 14.8262H120.319L119.208 18H112.885ZM123.078 4.2793L120.551 11.2617H125.41L123.078 4.2793ZM144.697 18V0.373047H155.097C156.505 0.373047 157.746 0.560221 158.82 0.93457C159.895 1.30892 160.802 1.81348 161.542 2.44824C162.283 3.08301 162.897 3.94157 163.386 5.02393C163.882 6.10628 164.13 7.51416 164.13 9.24756C164.041 10.8507 163.772 12.2139 163.325 13.3369C162.877 14.46 162.283 15.347 161.542 15.998C160.802 16.6491 159.895 17.1536 158.82 17.5117C157.754 17.8698 156.416 18.0326 154.804 18H144.697ZM150.581 4.74316V13.6055H153.938C154.694 13.6055 155.305 13.4468 155.769 13.1294C156.232 12.8039 156.611 12.3929 156.904 11.8965C157.197 11.3919 157.384 10.4886 157.465 9.18652C157.441 7.99837 157.274 7.12354 156.965 6.56201C156.664 5.99235 156.273 5.54883 155.793 5.23145C155.313 4.90592 154.686 4.74316 153.913 4.74316H150.581ZM164.985 18V0.373047H180.097V5.62207H170.722V7.64844H176.777V10.7246H170.722V12.751H181.586V18H164.985ZM204.78 18V0.373047H216.254C217.67 0.503255 218.842 0.869466 219.77 1.47168C220.698 2.07389 221.357 2.91211 221.748 3.98633C222.106 5.28841 222.252 6.26497 222.187 6.91602C222.122 7.56706 221.992 8.17741 221.796 8.74707C221.601 9.31673 221.064 9.97591 220.185 10.7246C219.306 11.4733 218.134 11.9575 216.669 12.1772H211.152V18H204.78ZM211.152 4.76758V8.01465H215.595C215.831 8.01465 216.088 7.9292 216.364 7.7583C216.641 7.57926 216.787 7.13574 216.804 6.42773C216.763 5.75228 216.596 5.30876 216.303 5.09717C216.018 4.87744 215.778 4.76758 215.583 4.76758H211.152ZM223.115 18V0.373047H238.227V5.62207H228.852V7.64844H234.907V10.7246H228.852V12.751H239.716V18H223.115ZM239.716 18V0.373047H245.454V12.751H255V18H239.716ZM255.488 0.373047H261.225V18H255.488V0.373047ZM274.311 12.751H279.829V18H272.016C270.104 18 268.374 17.6623 266.828 16.9868C265.282 16.3032 264.061 15.2819 263.166 13.9229C262.279 12.5638 261.835 10.8996 261.835 8.93018C261.835 7.54671 262.1 6.3138 262.629 5.23145C263.166 4.14095 263.907 3.23763 264.851 2.52148C265.795 1.7972 266.877 1.26009 268.098 0.910156C269.326 0.552083 270.633 0.373047 272.016 0.373047H276.85H279.829V5.62207H274.311C273.074 5.62207 272.159 5.65869 271.564 5.73193C270.97 5.80518 270.441 5.92725 269.978 6.09814C269.514 6.26904 269.103 6.56608 268.745 6.98926C268.387 7.41243 268.179 8.16113 268.122 9.23535C268.163 10.277 268.37 11.0216 268.745 11.4692C269.119 11.9168 269.575 12.2139 270.112 12.3604C270.649 12.5068 271.202 12.6086 271.772 12.6655C272.342 12.7225 273.188 12.751 274.311 12.751ZM285.688 0.373047V10.7979C285.639 11.986 285.867 12.812 286.372 13.2759C286.876 13.7397 287.666 13.988 288.74 14.0205C289.602 14.0042 290.323 13.752 290.9 13.2637C291.478 12.7754 291.751 11.9535 291.718 10.7979V0.373047H297.456V10.7124C297.431 12.1772 297.187 13.3491 296.723 14.228C296.267 15.0988 295.686 15.8271 294.978 16.4131C294.278 16.999 293.395 17.4548 292.329 17.7803C291.271 18.1058 290.091 18.2848 288.789 18.3174C287.706 18.293 286.604 18.1465 285.48 17.8779C284.366 17.6012 283.389 17.1699 282.551 16.584C281.721 15.998 281.078 15.2453 280.622 14.3257C280.174 13.4061 279.951 12.2057 279.951 10.7246V0.373047H285.688ZM298.31 18V0.373047H304.047V12.751H313.593V18H298.31ZM312.617 18L318.415 0.373047H327.167L333.063 18H326.398L325.288 14.8262H320.051L318.94 18H312.617ZM322.81 4.2793L320.283 11.2617H325.141L322.81 4.2793ZM346.699 5.62207H342.402C340.31 5.55697 340.001 6.13477 341.474 7.35547C344.111 9.66667 345.405 11.9128 345.356 14.0938C345.307 16.2747 344.013 17.5768 341.474 18H332.099V12.751H335.81C338.113 12.8161 338.406 12.1732 336.689 10.8223C333.857 8.2181 332.653 5.82552 333.076 3.64453C333.499 1.46354 334.833 0.373047 337.08 0.373047H346.699V5.62207ZM101.582 50V37.6221H97.9194V32.373H116.694V37.6221H107.319V39.6484H113.374V42.7246H107.319V44.751H118.183V50H101.582ZM137.006 32.373L130.537 41.1865L137.006 50H130.048L126.411 44.5557L122.822 50H115.864L122.333 41.1865L115.864 32.373H122.822L126.411 37.8174L130.048 32.373H137.006ZM148.017 44.751H153.535V50H145.722C143.81 50 142.08 49.6623 140.534 48.9868C138.988 48.3032 137.767 47.2819 136.872 45.9229C135.985 44.5638 135.542 42.8996 135.542 40.9302C135.542 39.5467 135.806 38.3138 136.335 37.2314C136.872 36.141 137.613 35.2376 138.557 34.5215C139.501 33.7972 140.583 33.2601 141.804 32.9102C143.033 32.5521 144.339 32.373 145.722 32.373H150.556H153.535V37.6221H148.017C146.78 37.6221 145.865 37.6587 145.271 37.7319C144.676 37.8052 144.147 37.9272 143.684 38.0981C143.22 38.269 142.809 38.5661 142.451 38.9893C142.093 39.4124 141.885 40.1611 141.828 41.2354C141.869 42.277 142.076 43.0216 142.451 43.4692C142.825 43.9168 143.281 44.2139 143.818 44.3604C144.355 44.5068 144.908 44.6086 145.478 44.6655C146.048 44.7225 146.894 44.751 148.017 44.751ZM154.267 50V32.373H160.004V44.751H169.55V50H154.267ZM175.41 32.373V42.7979C175.361 43.986 175.589 44.812 176.093 45.2759C176.598 45.7397 177.387 45.988 178.461 46.0205C179.324 46.0042 180.044 45.752 180.622 45.2637C181.2 44.7754 181.472 43.9535 181.44 42.7979V32.373H187.177V42.7124C187.153 44.1772 186.909 45.3491 186.445 46.228C185.989 47.0988 185.407 47.8271 184.699 48.4131C183.999 48.999 183.116 49.4548 182.05 49.7803C180.992 50.1058 179.812 50.2848 178.51 50.3174C177.428 50.293 176.325 50.1465 175.202 49.8779C174.087 49.6012 173.111 49.1699 172.272 48.584C171.442 47.998 170.799 47.2453 170.344 46.3257C169.896 45.4061 169.672 44.2057 169.672 42.7246V32.373H175.41ZM201.899 37.6221H197.602C195.511 37.557 195.201 38.1348 196.674 39.3555C199.311 41.6667 200.605 43.9128 200.556 46.0938C200.507 48.2747 199.213 49.5768 196.674 50H187.299V44.751H191.01C193.313 44.8161 193.606 44.1732 191.889 42.8223C189.057 40.2181 187.853 37.8255 188.276 35.6445C188.699 33.4635 190.034 32.373 192.28 32.373H201.899V37.6221ZM201.655 32.373H207.392V50H201.655V32.373ZM213.63 32.373L217.634 45.9106L221.687 32.373H228.754L222.468 50H213.105L206.904 32.373H213.63ZM226.801 50L232.6 32.373H241.352L247.248 50H240.583L239.472 46.8262H234.235L233.125 50H226.801ZM236.994 36.2793L234.467 43.2617H239.326L236.994 36.2793ZM260.883 37.6221H256.586C254.495 37.557 254.186 38.1348 255.659 39.3555C258.295 41.6667 259.589 43.9128 259.541 46.0938C259.492 48.2747 258.198 49.5768 255.659 50H246.284V44.751H249.995C252.298 44.8161 252.591 44.1732 250.874 42.8223C248.042 40.2181 246.837 37.8255 247.26 35.6445C247.683 33.4635 249.018 32.373 251.264 32.373H260.883V37.6221Z" fill="#FDFDFD"/>
</svg>
