<svg width="308" height="42" viewBox="0 0 308 42" fill="none" xmlns="http://www.w3.org/2000/svg">
<path d="M0 10C0 4.47715 4.47715 0 10 0H298C303.523 0 308 4.47715 308 10V32C308 37.5228 303.523 42 298 42H10C4.47716 42 0 37.5228 0 32V10Z" fill="#302D2D" fill-opacity="0.77"/>
<path d="M15.5696 31.7148H14.0958V34.6468H12.7735V27.0371H15.4494C16.3275 27.0371 17.0052 27.2341 17.4825 27.6278C17.9599 28.0215 18.1985 28.5912 18.1985 29.3368C18.1985 29.8455 18.0748 30.2723 17.8275 30.6173C17.5836 30.9588 17.2421 31.2218 16.8031 31.4065L18.5121 34.5788V34.6468H17.0958L15.5696 31.7148ZM14.0958 30.6538H15.4547C15.9006 30.6538 16.2491 30.5423 16.4999 30.3193C16.7508 30.0928 16.8762 29.7845 16.8762 29.3942C16.8762 28.9866 16.7595 28.6712 16.5261 28.4482C16.2961 28.2252 15.9512 28.1103 15.4912 28.1033H14.0958V30.6538ZM21.8204 34.7513C21.0156 34.7513 20.3623 34.4988 19.8605 33.9936C19.3623 33.4849 19.1132 32.8089 19.1132 31.9657V31.8089C19.1132 31.2445 19.2212 30.741 19.4372 30.2985C19.6567 29.8525 19.9633 29.5058 20.357 29.2584C20.7508 29.011 21.1898 28.8872 21.6741 28.8872C22.4441 28.8872 23.0382 29.133 23.4563 29.6243C23.8779 30.1156 24.0887 30.8107 24.0887 31.7096V32.2218H20.3936C20.432 32.6887 20.587 33.0579 20.8588 33.3297C21.134 33.6015 21.479 33.7374 21.8936 33.7374C22.4755 33.7374 22.9493 33.5023 23.3152 33.0319L23.9999 33.6851C23.7734 34.0231 23.4702 34.2861 23.0905 34.4743C22.7142 34.659 22.2908 34.7513 21.8204 34.7513ZM21.6689 29.9065C21.3204 29.9065 21.0382 30.0283 20.8222 30.2722C20.6097 30.5161 20.4738 30.8559 20.4145 31.2914H22.8344V31.1974C22.8065 30.7723 22.6933 30.4518 22.4946 30.2358C22.296 30.0163 22.0208 29.9065 21.6689 29.9065ZM24.857 31.7775C24.857 30.8994 25.0626 30.1991 25.4737 29.6764C25.8883 29.1503 26.4371 28.8872 27.12 28.8872C27.7646 28.8872 28.2716 29.1121 28.6409 29.5616L28.6984 28.9918H29.843V34.4743C29.843 35.2164 29.6113 35.8018 29.1479 36.2304C28.688 36.6589 28.066 36.8733 27.282 36.8733C26.8674 36.8733 26.4615 36.7861 26.0643 36.6119C25.6706 36.4412 25.3709 36.2164 25.1653 35.9377L25.7664 35.1747C26.1566 35.6381 26.6375 35.8697 27.2089 35.8697C27.6305 35.8697 27.9632 35.7549 28.2071 35.5249C28.451 35.2984 28.573 34.9638 28.573 34.5213V34.1398C28.2071 34.5475 27.7193 34.7513 27.1096 34.7513C26.4476 34.7513 25.9058 34.4882 25.4842 33.9621C25.066 33.436 24.857 32.7078 24.857 31.7775ZM26.1218 31.8873C26.1218 32.4552 26.2368 32.9029 26.4667 33.2304C26.7002 33.5544 27.0225 33.7166 27.4336 33.7166C27.9458 33.7166 28.3256 33.497 28.573 33.058V30.5702C28.3326 30.1416 27.9563 29.9273 27.4441 29.9273C27.026 29.9273 26.7002 30.0928 26.4667 30.4238C26.2368 30.7548 26.1218 31.2427 26.1218 31.8873ZM32.5032 34.6468H31.2332V28.9918H32.5032V34.6468ZM31.1548 27.5232C31.1548 27.328 31.2158 27.166 31.3377 27.0371C31.4632 26.9082 31.6409 26.8438 31.8708 26.8438C32.1008 26.8438 32.2785 26.9082 32.4039 27.0371C32.5294 27.166 32.5921 27.328 32.5921 27.5232C32.5921 27.7148 32.5294 27.8751 32.4039 28.004C32.2785 28.1294 32.1008 28.1922 31.8708 28.1922C31.6409 28.1922 31.4632 28.1294 31.3377 28.004C31.2158 27.8751 31.1548 27.7148 31.1548 27.5232ZM37.0607 33.1103C37.0607 32.8838 36.9666 32.7112 36.7784 32.5928C36.5938 32.4743 36.2854 32.3698 35.8534 32.2792C35.4213 32.1886 35.0607 32.0737 34.7715 31.9344C34.1374 31.6277 33.8203 31.1834 33.8203 30.6015C33.8203 30.1137 34.0259 29.7061 34.437 29.3785C34.8482 29.051 35.3708 28.8872 36.0049 28.8872C36.6809 28.8872 37.2262 29.0545 37.6408 29.389C38.0589 29.7235 38.268 30.1573 38.268 30.6904H36.998C36.998 30.4465 36.9074 30.2445 36.7262 30.0842C36.545 29.9204 36.3046 29.8385 36.0049 29.8385C35.7262 29.8385 35.498 29.9029 35.3203 30.0318C35.1461 30.1608 35.059 30.3332 35.059 30.5492C35.059 30.7444 35.1408 30.896 35.3046 31.004C35.4684 31.1121 35.7994 31.2218 36.2976 31.3333C36.7959 31.4413 37.1861 31.5719 37.4683 31.7252C37.754 31.875 37.9648 32.0563 38.1007 32.2688C38.2401 32.4814 38.3098 32.7391 38.3098 33.0423C38.3098 33.551 38.099 33.9639 37.6774 34.281C37.2558 34.5946 36.7035 34.7513 36.0206 34.7513C35.5572 34.7513 35.1443 34.6677 34.782 34.5004C34.4196 34.3332 34.1374 34.1032 33.9353 33.8105C33.7332 33.5179 33.6321 33.2025 33.6321 32.8646H34.8656C34.883 33.1642 34.9962 33.3959 35.2053 33.5597C35.4144 33.7199 35.6914 33.8001 36.0363 33.8001C36.3708 33.8001 36.6251 33.7374 36.7994 33.6119C36.9736 33.483 37.0607 33.3159 37.0607 33.1103ZM41.0118 27.6173V28.9918H42.0101V29.9326H41.0118V33.0893C41.0118 33.3053 41.0537 33.4621 41.1373 33.5597C41.2244 33.6537 41.3777 33.7008 41.5972 33.7008C41.7435 33.7008 41.8916 33.6835 42.0415 33.6486V34.6312C41.7523 34.7113 41.4735 34.7513 41.2052 34.7513C40.2296 34.7513 39.7418 34.2131 39.7418 33.1364V29.9326H38.8115V28.9918H39.7418V27.6173H41.0118ZM45.9456 30.1521C45.7783 30.1243 45.6059 30.1103 45.4282 30.1103C44.8463 30.1103 44.4543 30.3332 44.2522 30.7792V34.6468H42.9822V28.9918H44.1947L44.2261 29.6243C44.5327 29.133 44.9578 28.8872 45.5013 28.8872C45.6825 28.8872 45.8323 28.9116 45.9508 28.9604L45.9456 30.1521ZM46.3219 31.767C46.3219 31.213 46.4316 30.7148 46.6512 30.2722C46.8707 29.8263 47.179 29.4848 47.5762 29.2479C47.9734 29.0075 48.4299 28.8872 48.9455 28.8872C49.7086 28.8872 50.3271 29.133 50.8009 29.6243C51.2783 30.1156 51.5361 30.7671 51.5744 31.579L51.5797 31.8768C51.5797 32.4342 51.4717 32.9325 51.2556 33.3715C51.0431 33.8105 50.7365 34.1503 50.3358 34.3907C49.9386 34.6311 49.4786 34.7513 48.956 34.7513C48.1581 34.7513 47.5187 34.4865 47.0379 33.9569C46.5606 33.4238 46.3219 32.7147 46.3219 31.8297V31.767ZM47.5919 31.8768C47.5919 32.4586 47.7121 32.9151 47.9525 33.2461C48.1929 33.5736 48.5274 33.7374 48.956 33.7374C49.3846 33.7374 49.7173 33.5702 49.9542 33.2357C50.1947 32.9012 50.3149 32.4116 50.3149 31.767C50.3149 31.1956 50.1912 30.7426 49.9438 30.4081C49.6999 30.0736 49.3671 29.9065 48.9455 29.9065C48.5309 29.9065 48.2017 30.072 47.9578 30.403C47.7139 30.7305 47.5919 31.2217 47.5919 31.8768Z" fill="white"/>
<path d="M130.849 32.1719C130.772 32.9838 130.472 33.6179 129.95 34.0744C129.427 34.5273 128.732 34.7538 127.864 34.7538C127.258 34.7538 126.723 34.6109 126.26 34.3252C125.8 34.036 125.444 33.6266 125.194 33.097C124.943 32.5674 124.812 31.9524 124.802 31.2521V30.5413C124.802 29.8235 124.929 29.1911 125.183 28.6441C125.438 28.0971 125.802 27.6755 126.275 27.3793C126.753 27.0831 127.303 26.9351 127.927 26.9351C128.767 26.9351 129.443 27.1633 129.955 27.6197C130.467 28.0762 130.765 28.7208 130.849 29.5535H129.532C129.469 29.0065 129.309 28.6127 129.051 28.3723C128.796 28.1284 128.422 28.0065 127.927 28.0065C127.352 28.0065 126.91 28.2173 126.6 28.6389C126.293 29.057 126.136 29.672 126.129 30.4838V31.158C126.129 31.9803 126.275 32.6075 126.568 33.0395C126.864 33.4716 127.296 33.6876 127.864 33.6876C128.383 33.6876 128.774 33.5709 129.035 33.3374C129.296 33.104 129.462 32.7155 129.532 32.1719H130.849ZM131.674 31.7695C131.674 31.2155 131.784 30.7173 132.004 30.2747C132.223 29.8288 132.532 29.4873 132.929 29.2504C133.326 29.01 133.782 28.8897 134.298 28.8897C135.061 28.8897 135.68 29.1354 136.153 29.6267C136.631 30.118 136.889 30.7695 136.927 31.5814L136.932 31.8793C136.932 32.4367 136.824 32.935 136.608 33.374C136.396 33.813 136.089 34.1528 135.688 34.3932C135.291 34.6336 134.831 34.7538 134.309 34.7538C133.511 34.7538 132.871 34.489 132.39 33.9594C131.913 33.4263 131.674 32.7172 131.674 31.8322V31.7695ZM132.944 31.8793C132.944 32.4611 133.065 32.9176 133.305 33.2486C133.545 33.5761 133.88 33.7399 134.309 33.7399C134.737 33.7399 135.07 33.5726 135.307 33.2381C135.547 32.9036 135.667 32.4141 135.667 31.7695C135.667 31.1981 135.544 30.7451 135.296 30.4106C135.052 30.0761 134.72 29.9089 134.298 29.9089C133.883 29.9089 133.554 30.0744 133.31 30.4054C133.066 30.7329 132.944 31.2242 132.944 31.8793ZM139.185 28.9943L139.221 29.6476C139.639 29.1424 140.188 28.8897 140.868 28.8897C142.045 28.8897 142.645 29.564 142.666 30.9124V34.6493H141.396V30.9855C141.396 30.6267 141.317 30.3619 141.16 30.1911C141.007 30.0169 140.754 29.9298 140.403 29.9298C139.89 29.9298 139.509 30.1615 139.258 30.6249V34.6493H137.988V28.9943H139.185ZM144.301 34.6493V29.935H143.439V28.9943H144.301V28.6075C144.305 28.165 144.399 27.7852 144.584 27.4682C144.768 27.1511 145.03 26.9124 145.368 26.7521C145.706 26.5919 146.111 26.5117 146.585 26.5117C146.864 26.5117 147.131 26.5413 147.385 26.6006C147.643 26.6598 147.909 26.7347 148.185 26.8253L147.991 27.8758C147.51 27.7086 147.071 27.625 146.674 27.625C146.287 27.625 146.007 27.7103 145.833 27.881C145.659 28.0483 145.571 28.3009 145.571 28.6389V28.9943H146.685V29.935H145.571V34.6493H144.301ZM148.786 34.6493H147.516V28.9943H148.786V34.6493ZM153.155 30.1545C152.988 30.1267 152.815 30.1127 152.638 30.1127C152.056 30.1127 151.664 30.3357 151.462 30.7817V34.6493H150.192V28.9943H151.404L151.435 29.6267C151.742 29.1354 152.167 28.8897 152.711 28.8897C152.892 28.8897 153.042 28.9141 153.16 28.9629L153.155 30.1545ZM155.151 28.9943L155.188 29.5849C155.585 29.1215 156.129 28.8897 156.819 28.8897C157.575 28.8897 158.092 29.1789 158.371 29.7573C158.782 29.1789 159.36 28.8897 160.106 28.8897C160.73 28.8897 161.193 29.0622 161.496 29.4072C161.803 29.7521 161.96 30.2608 161.967 30.9333V34.6493H160.697V30.9699C160.697 30.611 160.618 30.3479 160.461 30.1807C160.305 30.0134 160.045 29.9298 159.683 29.9298C159.394 29.9298 159.157 30.0082 158.972 30.165C158.791 30.3183 158.664 30.5204 158.59 30.7713L158.596 34.6493H157.326V30.9281C157.308 30.2626 156.969 29.9298 156.306 29.9298C155.798 29.9298 155.437 30.1371 155.225 30.5517V34.6493H153.955V28.9943H155.151ZM166.65 34.6493C166.594 34.5412 166.545 34.3653 166.503 34.1214C166.099 34.543 165.604 34.7538 165.019 34.7538C164.451 34.7538 163.988 34.5918 163.629 34.2677C163.27 33.9437 163.09 33.543 163.09 33.0657C163.09 32.4629 163.313 32.0012 163.759 31.6807C164.209 31.3566 164.85 31.1946 165.683 31.1946H166.461V30.8235C166.461 30.5308 166.38 30.2974 166.216 30.1232C166.052 29.9455 165.803 29.8566 165.468 29.8566C165.179 29.8566 164.942 29.9298 164.758 30.0761C164.573 30.219 164.481 30.4019 164.481 30.6249H163.211C163.211 30.3148 163.313 30.0256 163.519 29.7573C163.725 29.4856 164.003 29.273 164.355 29.1197C164.711 28.9664 165.106 28.8897 165.542 28.8897C166.204 28.8897 166.731 29.057 167.125 29.3915C167.519 29.7225 167.721 30.1894 167.731 30.7922V33.3427C167.731 33.8514 167.803 34.2573 167.946 34.5604V34.6493H166.65ZM165.254 33.7346C165.505 33.7346 165.74 33.6737 165.96 33.5517C166.183 33.4298 166.35 33.266 166.461 33.0604V31.9942H165.777C165.306 31.9942 164.953 32.0761 164.716 32.2399C164.479 32.4036 164.36 32.6353 164.36 32.935C164.36 33.1789 164.441 33.374 164.601 33.5204C164.765 33.6632 164.982 33.7346 165.254 33.7346ZM171.385 33.7399C171.702 33.7399 171.965 33.6475 172.174 33.4629C172.383 33.2782 172.494 33.05 172.508 32.7782H173.705C173.691 33.1301 173.582 33.4594 173.376 33.766C173.17 34.0691 172.892 34.3095 172.54 34.4872C172.188 34.6649 171.808 34.7538 171.4 34.7538C170.609 34.7538 169.982 34.4977 169.519 33.9855C169.055 33.4733 168.824 32.766 168.824 31.8636V31.7329C168.824 30.8723 169.054 30.1842 169.514 29.6685C169.974 29.1493 170.601 28.8897 171.395 28.8897C172.068 28.8897 172.615 29.0866 173.036 29.4803C173.461 29.8706 173.684 30.3845 173.705 31.0221H172.508C172.494 30.6981 172.383 30.4315 172.174 30.2225C171.968 30.0134 171.705 29.9089 171.385 29.9089C170.974 29.9089 170.656 30.0587 170.434 30.3584C170.211 30.6545 170.097 31.1057 170.094 31.712V31.9158C170.094 32.5291 170.204 32.9873 170.423 33.2904C170.646 33.59 170.967 33.7399 171.385 33.7399ZM176.015 34.6493H174.745V28.9943H176.015V34.6493ZM174.667 27.5257C174.667 27.3305 174.728 27.1685 174.85 27.0396C174.975 26.9107 175.153 26.8462 175.383 26.8462C175.613 26.8462 175.791 26.9107 175.916 27.0396C176.041 27.1685 176.104 27.3305 176.104 27.5257C176.104 27.7173 176.041 27.8776 175.916 28.0065C175.791 28.1319 175.613 28.1946 175.383 28.1946C175.153 28.1946 174.975 28.1319 174.85 28.0065C174.728 27.8776 174.667 27.7173 174.667 27.5257ZM177.165 31.7695C177.165 31.2155 177.275 30.7173 177.494 30.2747C177.714 29.8288 178.022 29.4873 178.419 29.2504C178.817 29.01 179.273 28.8897 179.789 28.8897C180.552 28.8897 181.17 29.1354 181.644 29.6267C182.122 30.118 182.379 30.7695 182.418 31.5814L182.423 31.8793C182.423 32.4367 182.315 32.935 182.099 33.374C181.886 33.813 181.58 34.1528 181.179 34.3932C180.782 34.6336 180.322 34.7538 179.799 34.7538C179.001 34.7538 178.362 34.489 177.881 33.9594C177.404 33.4263 177.165 32.7172 177.165 31.8322V31.7695ZM178.435 31.8793C178.435 32.4611 178.555 32.9176 178.796 33.2486C179.036 33.5761 179.371 33.7399 179.799 33.7399C180.228 33.7399 180.561 33.5726 180.797 33.2381C181.038 32.9036 181.158 32.4141 181.158 31.7695C181.158 31.1981 181.034 30.7451 180.787 30.4106C180.543 30.0761 180.21 29.9089 179.789 29.9089C179.374 29.9089 179.045 30.0744 178.801 30.4054C178.557 30.7329 178.435 31.2242 178.435 31.8793ZM180.139 26.6215H181.587L180.139 28.2051H179.12L180.139 26.6215ZM184.675 28.9943L184.712 29.6476C185.13 29.1424 185.679 28.8897 186.358 28.8897C187.536 28.8897 188.135 29.564 188.156 30.9124V34.6493H186.886V30.9855C186.886 30.6267 186.808 30.3619 186.651 30.1911C186.498 30.0169 186.245 29.9298 185.893 29.9298C185.381 29.9298 185 30.1615 184.749 30.6249V34.6493H183.479V28.9943H184.675Z" fill="white"/>
<path d="M258.08 32.1695C258.003 32.9814 257.704 33.6155 257.181 34.072C256.658 34.5249 255.963 34.7513 255.096 34.7513C254.49 34.7513 253.955 34.6084 253.491 34.3227C253.031 34.0335 252.676 33.6241 252.425 33.0945C252.174 32.5649 252.044 31.95 252.033 31.2497V30.5388C252.033 29.821 252.16 29.1886 252.415 28.6416C252.669 28.0946 253.033 27.6731 253.507 27.3769C253.984 27.0807 254.535 26.9326 255.158 26.9326C255.998 26.9326 256.674 27.1609 257.186 27.6173C257.699 28.0738 257.996 28.7184 258.08 29.5511H256.763C256.7 29.0041 256.54 28.6103 256.282 28.3699C256.028 28.126 255.653 28.004 255.158 28.004C254.584 28.004 254.141 28.2148 253.831 28.6364C253.524 29.0545 253.368 29.6695 253.361 30.4813V31.1556C253.361 31.9779 253.507 32.6051 253.8 33.0371C254.096 33.4692 254.528 33.6851 255.096 33.6851C255.615 33.6851 256.005 33.5685 256.266 33.335C256.528 33.1016 256.693 32.7131 256.763 32.1695H258.08ZM258.906 31.767C258.906 31.213 259.016 30.7148 259.235 30.2722C259.455 29.8263 259.763 29.4848 260.16 29.2479C260.557 29.0075 261.014 28.8872 261.529 28.8872C262.293 28.8872 262.911 29.133 263.385 29.6243C263.862 30.1156 264.12 30.7671 264.158 31.579L264.164 31.8768C264.164 32.4342 264.056 32.9325 263.84 33.3715C263.627 33.8105 263.32 34.1503 262.92 34.3907C262.523 34.6311 262.063 34.7513 261.54 34.7513C260.742 34.7513 260.103 34.4865 259.622 33.9569C259.145 33.4238 258.906 32.7147 258.906 31.8297V31.767ZM260.176 31.8768C260.176 32.4586 260.296 32.9151 260.536 33.2461C260.777 33.5736 261.111 33.7374 261.54 33.7374C261.969 33.7374 262.301 33.5702 262.538 33.2357C262.779 32.9012 262.899 32.4116 262.899 31.767C262.899 31.1956 262.775 30.7426 262.528 30.4081C262.284 30.0736 261.951 29.9065 261.529 29.9065C261.115 29.9065 260.786 30.072 260.542 30.403C260.298 30.7305 260.176 31.2217 260.176 31.8768ZM266.432 28.9918L266.468 29.5824C266.866 29.119 267.409 28.8872 268.099 28.8872C268.855 28.8872 269.373 29.1765 269.651 29.7549C270.062 29.1765 270.641 28.8872 271.387 28.8872C272.01 28.8872 272.474 29.0597 272.777 29.4047C273.083 29.7496 273.24 30.2583 273.247 30.9308V34.6468H271.977V30.9674C271.977 30.6085 271.899 30.3454 271.742 30.1782C271.585 30.0109 271.326 29.9273 270.963 29.9273C270.674 29.9273 270.437 30.0057 270.252 30.1625C270.071 30.3158 269.944 30.518 269.871 30.7689L269.876 34.6468H268.606V30.9256C268.589 30.2601 268.249 29.9273 267.587 29.9273C267.078 29.9273 266.718 30.1346 266.505 30.5492V34.6468H265.235V28.9918H266.432ZM275.902 34.6468H274.632V28.9918H275.902V34.6468ZM274.554 27.5232C274.554 27.328 274.615 27.166 274.737 27.0371C274.862 26.9082 275.04 26.8438 275.27 26.8438C275.5 26.8438 275.677 26.9082 275.803 27.0371C275.928 27.166 275.991 27.328 275.991 27.5232C275.991 27.7148 275.928 27.8751 275.803 28.004C275.677 28.1294 275.5 28.1922 275.27 28.1922C275.04 28.1922 274.862 28.1294 274.737 28.004C274.615 27.8751 274.554 27.7148 274.554 27.5232ZM279.78 34.7513C278.975 34.7513 278.322 34.4988 277.82 33.9936C277.322 33.4849 277.073 32.8089 277.073 31.9657V31.8089C277.073 31.2445 277.181 30.741 277.397 30.2985C277.616 29.8525 277.923 29.5058 278.317 29.2584C278.71 29.011 279.149 28.8872 279.634 28.8872C280.404 28.8872 280.998 29.133 281.416 29.6243C281.838 30.1156 282.048 30.8107 282.048 31.7096V32.2218H278.353C278.392 32.6887 278.547 33.0579 278.818 33.3297C279.094 33.6015 279.439 33.7374 279.853 33.7374C280.435 33.7374 280.909 33.5023 281.275 33.0319L281.96 33.6851C281.733 34.0231 281.43 34.2861 281.05 34.4743C280.674 34.659 280.251 34.7513 279.78 34.7513ZM279.629 29.9065C279.28 29.9065 278.998 30.0283 278.782 30.2722C278.569 30.5161 278.433 30.8559 278.374 31.2914H280.794V31.1974C280.766 30.7723 280.653 30.4518 280.454 30.2358C280.256 30.0163 279.98 29.9065 279.629 29.9065ZM284.217 28.9918L284.254 29.6451C284.672 29.1399 285.221 28.8872 285.9 28.8872C287.078 28.8872 287.677 29.5616 287.698 30.91V34.6468H286.428V30.983C286.428 30.6242 286.35 30.3595 286.193 30.1887C286.04 30.0145 285.787 29.9273 285.435 29.9273C284.923 29.9273 284.541 30.159 284.291 30.6224V34.6468H283.021V28.9918H284.217ZM290.353 33.6328H293.364V34.6468H288.775V33.8159L291.644 30.0162H288.827V28.9918H293.254V29.7966L290.353 33.6328ZM297.759 34.6468C297.703 34.5387 297.654 34.3628 297.613 34.1189C297.209 34.5405 296.714 34.7513 296.128 34.7513C295.56 34.7513 295.097 34.5893 294.738 34.2652C294.379 33.9412 294.2 33.5405 294.2 33.0632C294.2 32.4604 294.423 31.9988 294.869 31.6783C295.318 31.3542 295.959 31.1921 296.792 31.1921H297.571V30.821C297.571 30.5283 297.489 30.295 297.325 30.1208C297.161 29.9431 296.912 29.8541 296.578 29.8541C296.289 29.8541 296.052 29.9274 295.867 30.0737C295.682 30.2166 295.59 30.3994 295.59 30.6224H294.32C294.32 30.3123 294.423 30.0232 294.628 29.7549C294.834 29.4832 295.113 29.2706 295.465 29.1173C295.82 28.964 296.215 28.8872 296.651 28.8872C297.313 28.8872 297.841 29.0545 298.235 29.389C298.628 29.72 298.83 30.1869 298.841 30.7897V33.3403C298.841 33.849 298.912 34.2549 299.055 34.558V34.6468H297.759ZM296.364 33.7321C296.614 33.7321 296.85 33.6712 297.069 33.5492C297.292 33.4273 297.459 33.2636 297.571 33.058V31.9918H296.886C296.416 31.9918 296.062 32.0736 295.825 32.2374C295.588 32.4011 295.47 32.6329 295.47 32.9326C295.47 33.1765 295.55 33.3716 295.71 33.518C295.874 33.6608 296.092 33.7321 296.364 33.7321Z" fill="white"/>
<path fill-rule="evenodd" clip-rule="evenodd" d="M34.4536 22.8496C39.1108 22.8496 42.9401 19.3049 43.3908 14.7663H147.665C148.115 19.305 151.945 22.8499 156.602 22.8499C161.259 22.8499 165.089 19.305 165.539 14.7663H269.813C270.263 19.305 274.093 22.8499 278.75 22.8499C283.71 22.8499 287.732 18.8287 287.732 13.8684C287.732 8.9081 283.71 4.88696 278.75 4.88696C274.398 4.88696 270.77 7.98175 269.945 12.0904H165.408C164.582 7.98175 160.954 4.88696 156.602 4.88696C152.25 4.88696 148.622 7.98175 147.797 12.0904H43.2592C42.4342 7.98163 38.8054 4.88672 34.4536 4.88672C29.4933 4.88672 25.4722 8.90786 25.4722 13.8681C25.4722 18.8285 29.4933 22.8496 34.4536 22.8496ZM156.602 21.0536C160.57 21.0536 163.787 17.8366 163.787 13.8684C163.787 9.90015 160.57 6.68325 156.602 6.68325C152.634 6.68325 149.417 9.90015 149.417 13.8684C149.417 17.8366 152.634 21.0536 156.602 21.0536ZM285.935 13.8684C285.935 17.8366 282.718 21.0536 278.75 21.0536C274.782 21.0536 271.565 17.8366 271.565 13.8684C271.565 9.90015 274.782 6.68325 278.75 6.68325C282.718 6.68325 285.935 9.90015 285.935 13.8684Z" fill="url(#paint0_linear_3633_48)"/>
<defs>
<linearGradient id="paint0_linear_3633_48" x1="38.9444" y1="22.8499" x2="294.019" y2="22.8499" gradientUnits="userSpaceOnUse">
<stop stop-color="#FF9700"/>
<stop offset="0.307292" stop-color="#FFBD00"/>
<stop offset="0.494792" stop-color="#CBD4DD"/>
<stop offset="0.546875" stop-color="white" stop-opacity="0.6"/>
<stop offset="0.760417" stop-color="white" stop-opacity="0.6"/>
<stop offset="1" stop-color="white" stop-opacity="0.6"/>
<stop offset="1" stop-color="#E2334C"/>
<stop offset="1" stop-color="white"/>
<stop offset="1" stop-color="white"/>
</linearGradient>
</defs>
</svg>
